<?xml version="1.0" encoding="UTF-8"?>
<!-- Generator: Adobe Illustrator 26.3.1, SVG Export Plug-In . SVG Version: 6.00 Build 0)  -->
<svg version="1.1" id="Layer_1" xmlns="http://www.w3.org/2000/svg" xmlns:xlink="http://www.w3.org/1999/xlink" x="0px" y="0px" viewBox="0 0 195.4 241.1" style="enable-background:new 0 0 195.4 241.1;" xml:space="preserve">
<style type="text/css">
	.st0{fill:#201C53;}
	.st1{fill:#00A1E4;}
</style>
<polygon class="st0" points="133.8,96.1 147.4,76 147.4,128.8 133.8,149 "/>
<polygon class="st0" points="116.9,63.5 130.4,43.3 130.4,99.9 116.9,120.1 "/>
<polygon class="st0" points="99.9,70.4 99.9,11.4 113.4,31.5 113.4,90.6 "/>
<polygon class="st1" points="49,128.8 49,76 62.6,96.1 62.6,149 "/>
<polygon class="st1" points="65.9,99.9 65.9,43.3 79.5,63.5 79.5,120.1 "/>
<polygon class="st1" points="82.9,31.5 96.5,11.4 96.5,70.4 82.9,90.6 "/>
<path class="st0" d="M20.1,173.5h5.4l-2.7-8.7L20.1,173.5z M27.5,180.1l-0.9-2.9h-7.6l-0.9,2.9h-4.2l5.3-15.8h7.4l5.3,15.8H27.5z"/>
<polygon class="st0" points="36,180.1 36,168.1 30.7,168.1 30.7,164.3 45.3,164.3 45.3,168.1 40,168.1 40,180.1 "/>
<polygon class="st0" points="58.8,180.1 58.8,173.9 51.8,173.9 51.8,180.1 47.8,180.1 47.8,164.3 51.8,164.3 51.8,170.1 58.8,170.1   58.8,164.3 62.8,164.3 62.8,180.1 "/>
<polygon class="st0" points="67.1,180.1 67.1,164.3 71.1,164.3 71.1,176.3 79.3,176.3 79.3,180.1 "/>
<polygon class="st0" points="85.3,161.4 90.6,159.5 91.2,161.3 85.9,163.2 "/>
<polygon class="st0" points="81.8,180.1 81.8,164.3 94.7,164.3 94.7,167.9 85.8,167.9 85.8,170.3 94.5,170.3 94.5,173.9 85.8,173.9   85.8,176.5 94.7,176.5 94.7,180.1 "/>
<polygon class="st0" points="102.1,180.1 102.1,168.1 96.8,168.1 96.8,164.3 111.4,164.3 111.4,168.1 106.1,168.1 106.1,180.1 "/>
<polygon class="st0" points="113.1,180.1 113.1,176.3 115.1,176.3 115.1,168.1 113.2,168.1 113.2,164.3 121,164.3 121,168.1   119,168.1 119,176.3 121,176.3 121,180.1 "/>
<g>
	<path class="st0" d="M130.6,170.1c-1.7-0.3-3.1-0.6-3.1-1.4c0-0.5,0.5-1,2.8-1c2.2,0,4.5,0.5,6,1.2v-4c-1.6-0.6-3.5-0.9-5.5-0.9   c-5.6,0-7.4,2.5-7.4,5c0,3.7,3.9,4.5,6.8,5.1c1.7,0.4,3.1,0.6,3.1,1.4c0,0.5-0.7,1.1-3.1,1.1c-2.1,0-4.8-0.5-6.8-1.8v4   c1.8,1,4.2,1.5,6.5,1.5c5.2,0,7.6-2.2,7.6-5.2C137.5,171.3,133.5,170.6,130.6,170.1"/>
	<polygon class="st0" points="155.2,164.3 152.7,179.5 150.3,164.3 142.4,164.3 139.2,180.1 143.4,180.1 146.2,164.9 148.6,180.1    156.6,180.1 159,164.9 161.8,180.1 166.1,180.1 163,164.3  "/>
	<polygon class="st0" points="182.2,167.9 182.2,164.3 169.3,164.3 169.3,180.1 182.2,180.1 182.2,176.5 173.3,176.5 173.3,173.9    182,173.9 182,170.3 173.3,170.3 173.3,167.9  "/>
	<path class="st0" d="M19.1,164.3l-5.3,15.8h4.2l0.9-2.9h7.6l0.9,2.9h4.4l-5.3-15.8H19.1z M20.1,173.5l2.7-8.7l2.7,8.7H20.1z"/>
	<polygon class="st0" points="30.7,168.1 36,168.1 36,180.1 40,180.1 40,168.1 45.3,168.1 45.3,164.3 30.7,164.3  "/>
	<polygon class="st0" points="58.8,170.1 51.8,170.1 51.8,164.3 47.8,164.3 47.8,180.1 51.8,180.1 51.8,173.9 58.8,173.9    58.8,180.1 62.8,180.1 62.8,164.3 58.8,164.3  "/>
	<polygon class="st0" points="71.1,164.3 67.1,164.3 67.1,180.1 79.3,180.1 79.3,176.3 71.1,176.3  "/>
	<polygon class="st0" points="91.2,161.3 90.6,159.5 85.3,161.4 85.9,163.2  "/>
	<polygon class="st0" points="81.8,180.1 94.7,180.1 94.7,176.5 85.8,176.5 85.8,173.9 94.5,173.9 94.5,170.3 85.8,170.3    85.8,167.9 94.7,167.9 94.7,164.3 81.8,164.3  "/>
	<polygon class="st0" points="96.8,168.1 102.1,168.1 102.1,180.1 106.1,180.1 106.1,168.1 111.4,168.1 111.4,164.3 96.8,164.3  "/>
	<polygon class="st0" points="119,168.1 121,168.1 121,164.3 113.2,164.3 113.2,168.1 115.1,168.1 115.1,176.3 113.1,176.3    113.1,180.1 121,180.1 121,176.3 119,176.3  "/>
	<path class="st0" d="M130.6,170.1c-1.7-0.3-3.1-0.6-3.1-1.4c0-0.5,0.5-1,2.8-1c2.2,0,4.5,0.5,6,1.2v-4c-1.6-0.6-3.5-0.9-5.5-0.9   c-5.6,0-7.4,2.5-7.4,5c0,3.7,3.9,4.5,6.8,5.1c1.7,0.4,3.1,0.6,3.1,1.4c0,0.5-0.7,1.1-3.1,1.1c-2.1,0-4.8-0.5-6.8-1.8v4   c1.8,1,4.2,1.5,6.5,1.5c5.2,0,7.6-2.2,7.6-5.2C137.5,171.3,133.5,170.6,130.6,170.1"/>
	<polygon class="st0" points="155.2,164.3 152.7,179.5 150.3,164.3 142.4,164.3 139.2,180.1 143.4,180.1 146.2,164.9 148.6,180.1    156.6,180.1 159,164.9 161.8,180.1 166.1,180.1 163,164.3  "/>
	<polygon class="st0" points="182.2,167.9 182.2,164.3 169.3,164.3 169.3,180.1 182.2,180.1 182.2,176.5 173.3,176.5 173.3,173.9    182,173.9 182,170.3 173.3,170.3 173.3,167.9  "/>
	<path class="st1" d="M35.8,218.2c0.2-1.5,0.2-4.1,0.2-7.7c0-4.2-0.1-6.9-0.3-8.3c-0.2-1.5-0.7-2.7-1.2-3.5   c-0.8-1.7-2.2-3.2-4.1-4.6c-1.9-1.4-4.3-2.1-7.1-2.1c-2.8,0-5.2,0.7-7,2.1c-1.9,1.3-3.3,2.9-4.1,4.5c-0.6,0.9-1,2.1-1.2,3.6   c-0.2,1.4-0.4,4.1-0.4,8.3c0,4.1,0.1,6.8,0.4,8.3c0.1,0.8,0.3,1.5,0.5,2c0.2,0.5,0.4,1,0.7,1.6c0.9,1.7,2.3,3.2,4.2,4.5   c1.9,1.4,4.3,2.1,7.1,2.1c3.3-0.1,6-1,8.1-2.9l4.4,3.6l3.8-4.6l-4.6-3.8C35.3,220.6,35.6,219.5,35.8,218.2 M29.4,216.8l-3.7-3   l-3.8,4.6l4.2,3.5c-0.8,0.4-1.7,0.7-2.9,0.7c-1.1,0-2.1-0.2-2.9-0.7c-0.8-0.4-1.5-0.9-2-1.6c-0.6-0.7-1-1.6-1.2-2.7   c-0.2-1.2-0.4-3.5-0.4-6.9c0-3.4,0.1-5.8,0.4-7c0.2-1.1,0.6-2,1.2-2.7c0.5-0.7,1.2-1.2,2-1.7c0.8-0.4,1.8-0.7,2.9-0.7   c1.1,0,2.1,0.3,2.9,0.7c0.8,0.4,1.4,1,1.9,1.7c0.6,0.7,1,1.6,1.2,2.6c0.2,1.2,0.3,3.6,0.3,7C29.7,213.4,29.6,215.5,29.4,216.8"/>
	<path class="st1" d="M60.6,215.6c0,2.2-0.6,3.9-1.8,5.1c-1.2,1.2-2.7,1.8-4.6,1.8c-1.9,0-3.3-0.6-4.5-1.8c-1.2-1.1-1.8-2.8-1.8-5.1   v-23.3h-6.3v23.9c0,3.9,1.3,7,3.7,9.2c2.4,2.3,5.4,3.5,9,3.6c3.6,0,6.7-1.2,9-3.6c2.4-2.3,3.6-5.4,3.7-9.2v-23.9h-6.3V215.6z"/>
	<polygon class="st1" points="73.9,228.7 96.9,228.7 96.9,222.5 80.3,222.5 80.3,213.3 94.5,213.3 94.5,207.4 80.3,207.4    80.3,198.5 96.9,198.5 96.9,192.3 73.9,192.3  "/>
	<path class="st1" d="M122.2,209.8c0.6-0.3,1.1-0.7,1.5-1.1c0.7-0.6,1.3-1.3,1.7-2c0.7-1.4,1.1-2.9,1.1-4.4c0-3-0.9-5.4-2.7-7.3   c-1.8-1.8-4.5-2.8-8-2.8H102v36.4h15c2.8,0,5.2-1,7.1-2.9c1.9-1.9,2.9-4.4,2.9-7.6c0-1.9-0.5-3.7-1.4-5.4   C124.8,211.4,123.7,210.5,122.2,209.8 M108.3,198.2h6.9c1.7,0,3,0.5,3.7,1.2c0.8,0.9,1.2,1.9,1.2,3.2c0,1.3-0.4,2.3-1.2,3.2   c-0.8,0.9-2,1.3-3.7,1.3h-6.9V198.2z M119.5,221.1c-0.8,0.9-2,1.4-3.8,1.4h-7.4v-9.4h7.4c1.7,0,3,0.5,3.8,1.4   c0.8,0.9,1.2,2,1.2,3.3C120.7,219.1,120.3,220.2,119.5,221.1"/>
	<polygon class="st1" points="132.8,228.7 155.8,228.7 155.8,222.5 139.1,222.5 139.1,213.3 153.3,213.3 153.3,207.4 139.1,207.4    139.1,198.5 155.8,198.5 155.8,192.3 132.8,192.3  "/>
	<path class="st1" d="M178.6,217.7l-0.2,0.3c-1.3,3-3.3,4.5-6,4.5c-1.1,0-2.1-0.2-2.9-0.7c-0.8-0.4-1.5-0.9-2-1.6   c-0.6-0.7-1-1.6-1.2-2.7c-0.2-1.2-0.4-3.5-0.4-6.9c0-3.4,0.1-5.8,0.4-7c0.2-1.1,0.6-2,1.2-2.7c0.5-0.7,1.2-1.2,2-1.7   c0.8-0.4,1.8-0.7,2.9-0.7c1.5,0,2.8,0.5,3.8,1.3c1,0.9,1.7,2.1,2.1,3.4l0.1,0.4h6.6l-0.1-0.7c-0.6-3.1-1.9-5.7-4.1-7.7   c-2.2-2.1-5-3.1-8.5-3.2c-2.8,0-5.2,0.7-7.1,2.1c-1.9,1.3-3.3,2.9-4.1,4.5c-0.6,0.9-1,2.1-1.2,3.6c-0.2,1.4-0.4,4.2-0.4,8.3   c0,4.1,0.1,6.8,0.4,8.3c0.1,0.8,0.3,1.5,0.5,2c0.2,0.5,0.4,1,0.7,1.6c0.9,1.7,2.3,3.2,4.2,4.5c1.9,1.4,4.3,2.1,7.1,2.1   c3.1,0,5.8-0.9,8.1-2.7c2.2-1.8,3.7-4.5,4.5-7.8l0.2-0.7H178.6z"/>
	<polygon class="st1" points="91.5,187.3 90.2,183.7 79.8,187.4 81.1,191  "/>
</g>
</svg>