<?xml version="1.0" encoding="UTF-8" standalone="no"?>
<!DOCTYPE svg PUBLIC "-//W3C//DTD SVG 1.1//EN" "http://www.w3.org/Graphics/SVG/1.1/DTD/svg11.dtd">
<svg width="100%" height="100%" viewBox="0 0 363 363" version="1.1" xmlns="http://www.w3.org/2000/svg" xmlns:xlink="http://www.w3.org/1999/xlink" xml:space="preserve" xmlns:serif="http://www.serif.com/" style="fill-rule:evenodd;clip-rule:evenodd;stroke-linejoin:round;stroke-miterlimit:1.41421;">
    <g transform="matrix(1,0,0,1,-64.0605,-64.059)">
        <g transform="matrix(1,0,0,1,-51.5,15.5)">
            <g transform="matrix(1,0,0,1,-0.0605011,0.173006)">
                <path d="M115.621,229.827C115.621,129.686 196.922,48.386 297.059,48.386C397.199,48.386 478.5,129.686 478.5,229.827C478.5,329.968 397.199,411.268 297.059,411.268C196.922,411.268 115.621,329.968 115.621,229.827Z" style="fill:rgb(33,39,33);fill-rule:nonzero;"/>
            </g>
            <g transform="matrix(1,0,0,1,-0.0605011,0.173006)">
                <path d="M238.633,278.718C238.633,278.718 262.633,277.499 292.145,260.073C285.906,256.792 279.168,253.143 272.059,249.139C260.023,257.241 248.465,266.714 238.633,278.718Z" style="fill:rgb(255,105,0);fill-rule:nonzero;"/>
            </g>
            <g transform="matrix(1,0,0,1,-0.0605011,0.173006)">
                <path d="M245.652,247.94C245.652,247.94 214.449,291.347 205.062,304.96L207.953,306.456C228.574,278.405 248.855,260.03 267.738,246.686C263.121,244.046 258.371,241.265 253.516,238.35C250.738,241.468 248.098,244.671 245.652,247.94Z" style="fill:rgb(255,105,0);fill-rule:nonzero;"/>
            </g>
            <g transform="matrix(1,0,0,1,-0.0605011,0.173006)">
                <path d="M356.617,188.643C349.586,201.612 336.918,211.077 321.863,220.069C328.141,225.112 333.93,229.522 338.859,233.163C358.906,216.253 392.758,193.284 379.727,132.069C379.727,132.069 368.141,149.972 349.859,165.768L345.312,186.761L343.254,169.487L324.137,183.12L319.125,203.198L316.957,187.515C316.957,187.515 309.129,192.054 298.164,199.741C305.125,206.143 312.059,212.081 318.57,217.401C334.355,209.1 347.445,201.292 356.617,188.643Z" style="fill:rgb(255,105,0);fill-rule:nonzero;"/>
            </g>
            <g transform="matrix(1,0,0,1,-0.0605011,0.173006)">
                <path d="M338.695,269.132L348.316,254.725C348.316,254.725 253.582,193.061 231.465,130.952C198.34,152.28 202.133,192.362 252.395,223.405C298.914,252.136 338.695,269.132 338.695,269.132Z" style="fill:rgb(255,105,0);fill-rule:nonzero;"/>
            </g>
            <g transform="matrix(1,0,0,1,-0.0605011,0.173006)">
                <path d="M343.449,269.647C336.129,280.608 339.078,295.429 350.039,302.749C361,310.069 375.816,307.116 383.137,296.159L389.094,287.241L359.945,267.776L355.203,274.874L377.371,289.682L376.16,291.495C371.418,298.597 361.816,300.507 354.715,295.765C347.617,291.022 345.703,281.421 350.445,274.323L350.43,274.311L359.824,260.241C362.258,256.597 361.277,251.663 357.633,249.229L357.258,248.979L343.449,269.647Z" style="fill:rgb(255,105,0);fill-rule:nonzero;"/>
            </g>
            <g transform="matrix(1,0,0,1,-0.0605011,0.173006)">
                <path d="M142.086,188.968L142.758,186.487L161.887,191.667L161.215,194.147L142.086,188.968Z" style="fill:rgb(255,105,0);fill-rule:nonzero;"/>
            </g>
            <g transform="matrix(1,0,0,1,-0.0605011,0.173006)">
                <path d="M451.422,186.55L452.094,189.03L432.953,194.198L432.281,191.718L451.422,186.55Z" style="fill:rgb(255,105,0);fill-rule:nonzero;"/>
            </g>
            <g transform="matrix(1,0,0,1,-0.0605011,0.173006)">
                <path d="M348.223,361.288L350.605,360.335L357.961,378.741L355.578,379.694L348.223,361.288Z" style="fill:rgb(255,105,0);fill-rule:nonzero;"/>
            </g>
            <g transform="matrix(1,0,0,1,-0.0605011,0.173006)">
                <path d="M211.18,226.393L211.18,219.1L206.801,214.722L189.297,214.722L184.922,219.1L184.922,226.393L182.004,229.311L184.922,232.229L184.922,239.522L189.297,243.897L206.801,243.897L211.18,239.522L211.18,232.229L203.887,232.229L203.887,235.143L202.426,236.604L193.676,236.604L192.215,235.143L192.215,223.475L193.676,222.015L202.426,222.015L203.887,223.475L203.887,226.393L211.18,226.393Z" style="fill:white;fill-rule:nonzero;"/>
            </g>
            <g transform="matrix(1,0,0,1,-0.0605011,0.173006)">
                <path d="M401.93,235.143L400.473,236.604L391.719,236.604L390.262,235.143L390.262,223.475L391.719,222.015L400.473,222.015L401.93,223.475L401.93,235.143ZM409.223,226.393L409.223,219.1L404.848,214.722L387.344,214.722L382.969,219.1L382.969,226.393L380.051,229.311L382.969,232.229L382.969,239.522L387.344,243.897L404.848,243.897L409.223,239.522L409.223,232.229L412.141,229.311L409.223,226.393Z" style="fill:white;fill-rule:nonzero;"/>
            </g>
            <g transform="matrix(1,0,0,1,-0.0605011,0.173006)">
                <path d="M310.207,308.265L310.207,296.597L302.914,296.597L302.914,308.265L291.242,308.265L291.242,296.597L283.949,296.597L283.949,308.265L281.031,311.182L283.949,314.1L283.949,325.772L291.242,325.772L291.242,315.62L302.914,315.62L302.914,325.772L310.207,325.772L310.207,314.1L313.125,311.182L310.207,308.265Z" style="fill:white;fill-rule:nonzero;"/>
            </g>
            <g transform="matrix(1,0,0,1,-0.0605011,0.173006)">
                <path d="M310.207,145.011L310.207,137.714L305.828,133.339L288.324,133.339L283.949,137.714L283.949,145.011L281.031,147.925L283.949,150.843L283.949,158.136L288.324,162.515L305.828,162.515L310.207,158.136L310.207,150.843L302.914,150.843L302.914,153.761L301.453,155.222L292.699,155.222L291.242,153.761L291.242,142.093L292.699,140.632L301.453,140.632L302.914,142.093L302.914,145.011L310.207,145.011Z" style="fill:white;fill-rule:nonzero;"/>
            </g>
            <g transform="matrix(1,0,0,1,-0.0605011,0.173006)">
                <path d="M304.953,87.374C307.594,87.507 309.668,86.389 311.027,84.858L308.957,82.886C308.023,83.932 306.641,84.663 305.09,84.585C302.426,84.452 300.68,82.366 300.816,79.6C300.965,76.62 302.988,74.831 305.566,74.956C307.121,75.034 308.422,75.96 309.25,77.034L311.504,75.296C309.965,73.222 307.762,72.249 305.707,72.147C300.844,71.905 297.945,75.186 297.734,79.444C297.488,84.354 300.883,87.171 304.953,87.374ZM317.672,88.319L320.578,88.901L321.719,83.198L327.711,84.397L326.57,90.1L329.473,90.682L332.398,76.061L329.492,75.479L328.23,81.804L322.238,80.604L323.504,74.28L320.598,73.702L317.672,88.319ZM346.09,95.722L348.996,96.765L348.785,80.85L346.117,79.893L335.887,92.065L338.793,93.108L340.75,90.639L346.145,92.573L346.09,95.722ZM342.41,88.557L346.246,83.71L346.285,83.722L346.188,89.913L342.41,88.557ZM354.965,99.276L357.602,100.522L359.781,95.909L361.891,96.905C364.852,98.304 367.5,97.815 368.898,94.85C370.121,92.268 369.594,89.698 366.328,88.155L361.336,85.796L354.965,99.276ZM360.906,93.534L362.852,89.417L364.73,90.304C366.289,91.038 366.738,92.249 366.156,93.483C365.562,94.737 364.34,95.159 362.672,94.37L360.906,93.534ZM378.621,112.616L381.191,114.327L384.832,98.835L382.473,97.265L369.605,106.604L372.176,108.319L374.668,106.397L379.438,109.577L378.621,112.616ZM376.781,104.776L381.676,100.999L381.707,101.022L380.117,107.003L376.781,104.776ZM395.137,125.62L395.738,119.054C397.613,119.776 399.441,119.374 400.957,117.522C402.766,115.311 402.863,112.675 400.086,110.401L395.715,106.819L386.266,118.354L388.523,120.206L391.758,116.257L393.09,117.347L392.438,123.413L395.137,125.62ZM396.309,110.702L398,112.085C399.332,113.175 399.508,114.487 398.641,115.542C397.762,116.616 396.414,116.702 395,115.546L393.406,114.241L396.309,110.702ZM407.527,139.116L409.09,132.71C410.84,133.702 412.703,133.569 414.477,131.96C416.594,130.042 417.074,127.448 414.66,124.792L410.863,120.608L399.824,130.628L401.785,132.788L405.562,129.358L406.723,130.632L405.188,136.538L407.527,139.116ZM410.883,124.534L412.352,126.147C413.508,127.425 413.488,128.749 412.477,129.663C411.449,130.597 410.105,130.487 408.875,129.132L407.492,127.608L410.883,124.534ZM417.09,152.479L418.805,155.05L428.117,142.143L426.543,139.784L411.078,143.468L412.789,146.034L415.828,145.218L419.012,149.987L417.09,152.479ZM418.402,144.534L424.375,142.925L424.398,142.96L420.629,147.87L418.402,144.534ZM421.992,160.686L426.512,169.151L428.828,167.917L425.703,162.061L436.543,156.28L435.148,153.667L421.992,160.686ZM262.293,91.12L272.074,89.159L271.559,86.585L264.617,87.975L263.938,84.577L269.148,83.534L268.637,80.983L263.43,82.026L262.727,78.522L269.234,77.222L268.715,74.628L259.367,76.499L262.293,91.12ZM280.98,82.659L287.312,82.03L287.059,79.479L280.727,80.108L280.98,82.659ZM171.75,161.417C172.996,159.081 172.871,156.729 172.066,154.847L169.398,155.874C169.945,157.167 170.02,158.729 169.285,160.1C168.031,162.452 165.402,163.143 162.953,161.839C160.324,160.432 159.566,157.839 160.781,155.561C161.516,154.19 162.906,153.409 164.23,153.116L163.617,150.339C161.086,150.843 159.27,152.421 158.301,154.237C156.008,158.534 157.742,162.554 161.5,164.561C165.836,166.874 169.832,165.011 171.75,161.417ZM182.391,144.831C185.004,141.304 184.438,136.913 180.773,134.206C177.113,131.491 172.73,132.222 170.121,135.749C167.434,139.382 168.18,143.772 171.742,146.409C175.289,149.03 179.707,148.46 182.391,144.831ZM180.195,143.179C178.594,145.339 175.746,145.554 173.566,143.944C171.391,142.331 170.762,139.542 172.359,137.382C173.887,135.323 176.691,134.995 178.953,136.667C181.195,138.331 181.719,141.12 180.195,143.179ZM199.598,125.112L193.113,123.917C194.004,122.116 193.766,120.261 192.059,118.581C190.023,116.577 187.406,116.245 184.887,118.804L180.926,122.831L191.555,133.288L193.602,131.206L189.965,127.628L191.172,126.401L197.152,127.597L199.598,125.112ZM184.844,122.593L186.375,121.034C187.582,119.807 188.902,119.753 189.879,120.71C190.867,121.679 190.832,123.03 189.551,124.335L188.109,125.8L184.844,122.593ZM208.406,117.987C210.293,116.444 211.648,113.624 209.59,111.104C207.766,108.878 205.766,109.647 203.129,110.503C201.383,111.057 200.5,111.268 199.93,110.542C199.332,109.811 199.57,108.909 200.367,108.257C201.082,107.671 202.207,107.323 203.816,107.335L203.723,104.534C201.832,104.507 200.059,105.061 198.645,106.249C196.59,107.983 196.121,110.725 197.637,112.581C199.418,114.757 201.82,114.147 204.066,113.343C205.848,112.671 206.719,112.475 207.41,113.319C207.996,114.034 207.855,114.991 206.75,115.893C205.84,116.639 204.375,117.104 202.691,116.8L202.707,119.608C204.934,119.878 206.91,119.21 208.406,117.987ZM226.41,105.636L229.059,104.05L216.629,94.112L214.195,95.565L217.109,111.198L219.758,109.612L219.094,106.538L224.012,103.593L226.41,105.636ZM218.539,103.932L217.223,97.889L217.262,97.87L221.98,101.874L218.539,103.932ZM234.98,101.175L237.656,99.909L231.285,86.429L228.609,87.694L234.98,101.175ZM255.688,92.921L250.367,89.026C251.953,87.788 252.543,86.015 251.734,83.761C250.773,81.073 248.559,79.636 245.18,80.847L239.863,82.753L244.895,96.788L247.641,95.804L245.918,90.999L247.539,90.417L252.406,94.097L255.688,92.921ZM243.496,84.241L245.551,83.503C247.172,82.921 248.387,83.444 248.848,84.729C249.316,86.034 248.699,87.237 246.977,87.854L245.039,88.55L243.496,84.241Z" style="fill:white;"/>
            </g>
            <g transform="matrix(1,0,0,1,-0.0605011,0.173006)">
                <path d="M156.887,301.186L159.242,305.597C161.492,309.819 165.543,310.944 169.418,308.878C173.309,306.804 174.59,302.69 172.367,298.522L170.043,294.167L156.887,301.186ZM160.578,302.526L169.082,297.987L170.062,299.823C171.328,302.194 170.438,304.858 167.973,306.171C165.566,307.456 162.832,306.749 161.469,304.194L160.578,302.526ZM181.145,312.628L179.969,310.862L174.691,312.788L176.254,315.132L181.145,312.628ZM179.398,334.362L181.355,336.753L189.363,322.999L187.566,320.807L172.531,325.979L174.488,328.37L177.434,327.261L181.066,331.694L179.398,334.362ZM179.93,326.327L185.715,324.143L185.742,324.175L182.473,329.432L179.93,326.327ZM188.781,343.932L190.961,345.905L199.191,336.815L202.258,339.589L204.035,337.628L195.734,330.116L193.961,332.077L197.012,334.839L188.781,343.932ZM199.789,353.475L202.172,355.237L205.633,350.561L210.543,354.194L207.086,358.874L209.465,360.636L218.332,348.647L215.953,346.886L212.117,352.069L207.203,348.432L211.039,343.253L208.66,341.491L199.789,353.475ZM216.777,365.034L225.012,369.96L226.359,367.706L220.664,364.3L226.969,353.757L224.43,352.237L216.777,365.034ZM240.676,358.862L243.121,359.874L246.715,357.999L244.051,356.921L240.676,358.862ZM231.922,373.034L241.141,376.85L242.145,374.425L235.605,371.718L236.93,368.518L241.84,370.55L242.836,368.143L237.926,366.112L239.293,362.811L245.422,365.35L246.434,362.905L237.625,359.261L231.922,373.034ZM251.539,380.319L254.352,381.175L257.914,369.44L261.875,370.643L262.645,368.112L251.934,364.858L251.164,367.389L255.102,368.585L251.539,380.319ZM265.762,383.905L268.668,384.487L271.59,369.862L268.684,369.284L265.762,383.905ZM281.645,386.46C284.066,386.698 287.02,385.663 287.34,382.425C287.625,379.561 285.664,378.69 283.195,377.432C281.566,376.597 280.793,376.12 280.906,375.202C280.996,374.261 281.805,373.792 282.828,373.893C283.75,373.983 284.789,374.53 285.922,375.679L287.836,373.632C286.512,372.276 284.867,371.417 283.027,371.253C280.348,371.03 278.078,372.639 277.84,375.022C277.562,377.823 279.695,379.089 281.852,380.104C283.59,380.889 284.344,381.366 284.238,382.452C284.145,383.374 283.371,383.948 281.949,383.807C280.777,383.694 279.414,382.987 278.434,381.581L276.465,383.581C277.852,385.343 279.723,386.268 281.645,386.46ZM306.688,372.085L302.203,380.608L302.16,380.608L297.512,372.163L294.527,372.186L294.652,387.097L297.594,387.073L297.516,377.811L297.559,377.811L301.246,384.206L303.156,384.19L306.734,377.737L306.777,377.733L306.852,386.995L309.773,386.972L309.648,372.061L306.688,372.085ZM318.23,385.62L328.098,384.143L327.707,381.55L320.711,382.593L320.195,379.167L325.453,378.382L325.066,375.807L319.812,376.593L319.285,373.061L325.848,372.081L325.457,369.464L316.027,370.874L318.23,385.62ZM139.766,223.479C139.637,226.124 140.754,228.198 142.285,229.554L144.258,227.487C143.211,226.554 142.48,225.171 142.559,223.62C142.688,220.956 144.773,219.21 147.543,219.347C150.52,219.495 152.312,221.518 152.184,224.097C152.105,225.647 151.18,226.948 150.109,227.776L151.848,230.03C153.922,228.495 154.891,226.292 154.996,224.237C155.234,219.37 151.953,216.475 147.695,216.261C142.785,216.018 139.969,219.413 139.766,223.479ZM139.957,236.983L140.434,246.569L143.055,246.44L142.727,239.811L154.996,239.202L154.848,236.245L139.957,236.983ZM142.504,259.784C143.258,263.554 146.102,265.253 149.914,264.491L158.48,262.78L157.898,259.878L149.52,261.55C147.191,262.015 145.578,261.011 145.223,259.241C144.84,257.323 146.211,255.936 148.312,255.518L156.691,253.843L156.113,250.94L147.547,252.651C143.551,253.448 141.805,256.284 142.504,259.784ZM155.949,279.1L155.969,279.093C157.047,280.479 158.531,280.667 159.816,280.272C162.086,279.585 162.797,277.589 161.875,274.557L160.312,269.413L146.047,273.749L147.84,279.655C148.789,282.768 150.918,283.788 153.191,283.1C155.078,282.526 156.047,281.089 155.949,279.1ZM158.664,272.944L159.227,274.792C159.727,276.44 159.27,277.323 158.266,277.628C157.102,277.983 156.266,277.116 155.926,275.991L155.309,273.964L158.664,272.944ZM150.078,278.054L149.379,275.765L153.039,274.651L153.738,276.964C154.254,278.651 153.777,279.694 152.652,280.034C151.43,280.409 150.535,279.561 150.078,278.054Z" style="fill:white;"/>
            </g>
            <g transform="matrix(1,0,0,1,-0.0605011,0.173006)">
                <path d="M449.883,266.452L450.582,263.659L436.59,260.143L436.035,262.362L438.004,267.362L440.391,266.554L439.23,263.772L449.883,266.452ZM438.359,248.737C437.926,251.624 439.527,254.136 442.352,254.557C445.258,254.995 447.215,253.268 447.57,250.901C447.707,249.968 447.621,248.999 447.301,248.143L447.324,248.124C449.254,249.284 450.215,251.233 450.535,253.932L452.945,253.444C452.762,248.831 449.555,245.147 444.859,244.444C441.434,243.932 438.801,245.768 438.359,248.737ZM442.805,251.804C441.602,251.624 440.703,250.534 440.918,249.081C441.125,247.71 442.441,246.843 444.23,247.112L444.414,247.139C445.035,247.827 445.461,248.823 445.312,249.8C445.098,251.253 444.074,251.991 442.805,251.804ZM439.52,238.331L442.102,238.46L442.391,232.632L453.777,237.925L454.441,235.12L441.832,229.468L439.965,229.378L439.52,238.331ZM444.523,217.538C444.57,218.479 444.848,219.413 445.328,220.167L445.328,220.186C443.23,219.452 441.949,217.768 441.086,215.225L438.844,216.159C439.906,220.647 443.77,223.546 448.449,223.311C451.91,223.143 454.105,220.804 453.961,217.847C453.812,214.889 451.773,212.741 448.941,212.882C445.961,213.03 444.406,215.124 444.523,217.538ZM451.398,217.889C451.465,219.296 450.348,220.487 448.566,220.573L448.355,220.585C447.613,220.034 447,219.139 446.953,218.151C446.879,216.706 447.758,215.737 449.016,215.675C450.23,215.612 451.328,216.507 451.398,217.889ZM382.637,361.659L386.793,358.886C390.777,356.229 391.496,352.089 389.062,348.436C386.617,344.768 382.398,343.893 378.469,346.518L374.363,349.257L382.637,361.659ZM383.605,357.854L378.258,349.835L379.988,348.682C382.227,347.194 384.961,347.815 386.512,350.139C388.027,352.409 387.59,355.198 385.18,356.807L383.605,357.854ZM399.145,349.393L406.539,342.698L404.777,340.753L399.531,345.503L397.203,342.936L401.145,339.37L399.395,337.436L395.457,341.003L393.062,338.358L397.98,333.905L396.203,331.944L389.137,338.343L399.145,349.393ZM411.996,337.018L413.953,334.854L410.172,331.429L411.738,329.702C413.938,327.276 414.234,324.6 411.805,322.401C409.691,320.483 407.074,320.241 404.652,322.917L400.945,327.011L411.996,337.018ZM408.227,329.667L404.848,326.608L406.246,325.069C407.402,323.792 408.691,323.714 409.703,324.628C410.73,325.561 410.777,326.85 409.539,328.222L408.227,329.667ZM427.188,318.233C429.32,315.038 428.512,311.823 425.277,309.667L418.012,304.819L416.367,307.28L423.477,312.026C425.453,313.343 425.883,315.194 424.883,316.694C423.797,318.319 421.848,318.331 420.062,317.143L412.953,312.401L411.309,314.866L418.578,319.71C421.969,321.972 425.207,321.206 427.188,318.233ZM434.641,305.784L436.039,303.171L422.883,296.151L421.488,298.761L434.641,305.784ZM441.828,291.389C442.762,289.139 442.625,286.015 439.617,284.768C436.961,283.667 435.559,285.292 433.641,287.292C432.367,288.608 431.684,289.21 430.84,288.839C429.965,288.475 429.75,287.569 430.145,286.616C430.5,285.765 431.324,284.925 432.75,284.175L431.344,281.749C429.664,282.62 428.363,283.948 427.676,285.663C426.688,288.163 427.57,290.8 429.781,291.718C432.383,292.796 434.211,291.12 435.809,289.35C437.062,287.917 437.738,287.331 438.746,287.749C439.598,288.104 439.926,289.011 439.379,290.331C438.93,291.417 437.859,292.518 436.23,293.05L437.574,295.515C439.66,294.698 441.09,293.175 441.828,291.389Z" style="fill:white;"/>
            </g>
        </g>
    </g>
</svg>
